700 0 1 0           
33 Autodesk Inventor 15.2.0000.30900 18 ASM 216.0.2.401 NT 24 Sun Oct 07 18:22:05 2012 
1 9.9999999999999995e-007 1e-010 
body $-1 -1 $-1 $1 $-1 $-1 #
lump $-1 -1 $-1 $-1 $2 $0 #
shell $-1 -1 $-1 $-1 $-1 $3 $-1 $1 #
face $-1 -1 $-1 $4 $5 $2 $-1 $6 reversed single #
face $-1 -1 $-1 $7 $8 $2 $-1 $9 reversed single #
loop $-1 -1 $-1 $-1 $10 $3 #
plane-surface $-1 -1 $-1 12.500000000000002 1.5999999999999988 7.0000000000000009 1 0 0 0 0 -10 forward_v I I I I #
face $-1 -1 $-1 $11 $12 $2 $-1 $13 reversed single #
loop $-1 -1 $-1 $-1 $14 $4 #
plane-surface $-1 -1 $-1 12.500000000000002 3.399999999999999 7.0000000000000009 -1.5860328923216517e-016 1 0 0 0 10 forward_v I I I I #
coedge $-1 -1 $-1 $15 $16 $17 $18 reversed $5 $-1 #
face $-1 -1 $-1 $19 $20 $2 $-1 $21 reversed single #
loop $-1 -1 $-1 $-1 $22 $7 #
plane-surface $-1 -1 $-1 5.5 3.3999999999999981 7.0000000000000009 -1 0 0 0 0 10 forward_v I I I I #
coedge $-1 -1 $-1 $23 $24 $25 $26 reversed $8 $-1 #
coedge $-1 -1 $-1 $27 $10 $28 $29 reversed $5 $-1 #
coedge $-1 -1 $-1 $10 $27 $23 $30 forward $5 $-1 #
coedge $-1 -1 $-1 $25 $31 $10 $18 forward $32 $-1 #
edge $-1 -1 $-1 $33 -0.18000000000000005 $34 0 $10 $35 forward @7 unknown #
face $-1 -1 $-1 $36 $32 $2 $-1 $37 forward single #
loop $-1 -1 $-1 $-1 $38 $11 #
plane-surface $-1 -1 $-1 5.5 1.5999999999999979 7.0000000000000009 1.1895246692412389e-016 -1 0 0 0 -10 forward_v I I I I #
coedge $-1 -1 $-1 $39 $40 $41 $42 reversed $12 $-1 #
coedge $-1 -1 $-1 $43 $14 $16 $30 reversed $8 $-1 #
coedge $-1 -1 $-1 $14 $43 $39 $44 forward $8 $-1 #
coedge $-1 -1 $-1 $41 $17 $14 $26 forward $32 $-1 #
edge $-1 -1 $-1 $34 -0.70000000000000018 $45 0 $14 $46 forward @7 unknown #
coedge $-1 -1 $-1 $16 $15 $47 $48 reversed $5 $-1 #
coedge $-1 -1 $-1 $38 $49 $15 $29 forward $20 $-1 #
edge $-1 -1 $-1 $50 0 $33 0.050000000000000155 $15 $51 forward @7 unknown #
edge $-1 -1 $-1 $52 0 $34 0.050000000000000155 $23 $53 forward @7 unknown #
coedge $-1 -1 $-1 $17 $41 $38 $54 forward $32 $-1 #
loop $-1 -1 $-1 $-1 $17 $19 #
vertex $-1 -1 $-1 $29 $55 #
vertex $-1 -1 $-1 $30 $56 #
straight-curve $-1 -1 $-1 12.500000000000002 3.399999999999999 6.5 0 10 0 F -0.18000000000000005 F -0 #
face $-1 -1 $-1 $57 $58 $2 $-1 $59 reversed single #
plane-surface $-1 -1 $-1 9 2.4999999999999973 6.4999999999999991 7.5089562254513156e-032 -1.2491751251599535e-030 1 10 0 -7.5089562254513156e-031 forward_v I I I I #
coedge $-1 -1 $-1 $60 $28 $31 $54 reversed $20 $-1 #
coedge $-1 -1 $-1 $61 $22 $24 $44 reversed $12 $-1 #
coedge $-1 -1 $-1 $22 $61 $60 $62 forward $12 $-1 #
coedge $-1 -1 $-1 $31 $25 $22 $42 forward $32 $-1 #
edge $-1 -1 $-1 $45 -0.18000000000000002 $63 0 $22 $64 forward @7 unknown #
coedge $-1 -1 $-1 $24 $23 $65 $66 reversed $8 $-1 #
edge $-1 -1 $-1 $67 0 $45 0.050000000000000155 $39 $68 forward @7 unknown #
vertex $-1 -1 $-1 $44 $69 #
straight-curve $-1 -1 $-1 5.5 3.3999999999999981 6.5 -10 -1.5860328923216517e-015 -0 F -0.70000000000000018 F -0 #
coedge $-1 -1 $-1 $70 $65 $27 $48 forward $71 $-1 #
edge $-1 -1 $-1 $52 -0.26000000000000001 $50 -0.07999999999999996 $47 $72 forward @7 unknown #
coedge $-1 -1 $-1 $28 $60 $70 $73 reversed $20 $-1 #
vertex $-1 -1 $-1 $48 $74 #
straight-curve $-1 -1 $-1 12.500000000000002 1.5999999999999988 7.0000000000000009 0 0 -10 I I #
vertex $-1 -1 $-1 $48 $75 #
straight-curve $-1 -1 $-1 12.500000000000002 3.399999999999999 7.0000000000000009 0 0 -10 I I #
edge $-1 -1 $-1 $63 -0.70000000000000018 $33 0 $38 $76 forward @7 unknown #
point $-1 -1 $-1 12.500000000000002 1.5999999999999988 6.4999999999999991 #
point $-1 -1 $-1 12.500000000000002 3.399999999999999 6.4999999999999991 #
face $-1 -1 $-1 $77 $78 $2 $-1 $79 reversed single #
loop $-1 -1 $-1 $-1 $80 $36 #
plane-surface $-1 -1 $-1 5.5 0.89999999999999791 7.0000000000000009 -1 -0 -0 0 0 10 forward_v I I I I #
coedge $-1 -1 $-1 $49 $38 $40 $62 reversed $20 $-1 #
coedge $-1 -1 $-1 $40 $39 $81 $82 reversed $12 $-1 #
edge $-1 -1 $-1 $83 0 $63 0.050000000000000155 $60 $84 forward @7 unknown #
vertex $-1 -1 $-1 $62 $85 #
straight-curve $-1 -1 $-1 5.5 1.5999999999999979 6.5 -0 -10 -0 F -0.18000000000000002 F -0 #
coedge $-1 -1 $-1 $47 $81 $43 $66 forward $71 $-1 #
edge $-1 -1 $-1 $67 -0.52500000000000013 $52 0.17500000000000004 $65 $86 forward @7 unknown #
vertex $-1 -1 $-1 $66 $87 #
straight-curve $-1 -1 $-1 5.5 3.3999999999999981 7.0000000000000009 0 0 -10 I I #
point $-1 -1 $-1 5.5 3.3999999999999981 6.4999999999999991 #
coedge $-1 -1 $-1 $81 $47 $49 $73 forward $71 $-1 #
loop $-1 -1 $-1 $88 $47 $89 #
straight-curve $-1 -1 $-1 12.500000000000002 0.79999999999999905 7.0000000000000009 0 -10 0 I I #
edge $-1 -1 $-1 $50 -0.52500000000000013 $83 0.17500000000000004 $70 $90 forward @7 unknown #
point $-1 -1 $-1 12.500000000000002 1.5999999999999988 7.0000000000000009 #
point $-1 -1 $-1 12.500000000000002 3.399999999999999 7.0000000000000009 #
straight-curve $-1 -1 $-1 12.500000000000002 1.5999999999999988 6.5 10 1.1895246692412389e-015 0 F -0.70000000000000018 F -0 #
face $-1 -1 $-1 $91 $92 $2 $-1 $93 reversed single #
loop $-1 -1 $-1 $-1 $94 $57 #
plane-surface $-1 -1 $-1 5.5 -0.90000000000000235 7.0000000000000009 1.1895246692412389e-016 -1 0 0 0 -10 forward_v I I I I #
coedge $-1 -1 $-1 $95 $96 $97 $98 reversed $58 $-1 #
coedge $-1 -1 $-1 $65 $70 $61 $82 forward $71 $-1 #
edge $-1 -1 $-1 $83 -0.010000000000000092 $67 0.16999999999999993 $81 $99 forward @7 unknown #
vertex $-1 -1 $-1 $82 $100 #
straight-curve $-1 -1 $-1 5.5 1.5999999999999979 7.0000000000000009 0 0 -10 I I #
point $-1 -1 $-1 5.5 1.5999999999999979 6.4999999999999991 #
straight-curve $-1 -1 $-1 10.750000000000002 3.3999999999999986 7.0000000000000009 10 1.5860328923216517e-015 0 I I #
point $-1 -1 $-1 5.5 3.3999999999999981 7.0000000000000009 #
loop $-1 -1 $-1 $101 $102 $89 #
face $-1 -1 $-1 $-1 $103 $2 $-1 $104 forward single #
straight-curve $-1 -1 $-1 7.2500000000000009 1.5999999999999981 7.0000000000000009 -10 -1.1895246692412389e-015 0 I I #
face $-1 -1 $-1 $105 $106 $2 $-1 $107 reversed single #
loop $-1 -1 $-1 $-1 $108 $77 #
plane-surface $-1 -1 $-1 12.500000000000002 -0.90000000000000147 7.0000000000000009 1 0 0 0 0 -10 forward_v I I I I #
coedge $-1 -1 $-1 $109 $110 $111 $112 reversed $78 $-1 #
coedge $-1 -1 $-1 $113 $80 $114 $115 reversed $58 $-1 #
coedge $-1 -1 $-1 $80 $113 $109 $116 forward $58 $-1 #
coedge $-1 -1 $-1 $111 $117 $80 $98 forward $118 $-1 #
edge $-1 -1 $-1 $119 0 $120 0.18000000000000002 $80 $121 forward @7 unknown #
straight-curve $-1 -1 $-1 5.5 1.6999999999999988 7.0000000000000009 0 10 0 I I #
point $-1 -1 $-1 5.5 1.5999999999999979 7.0000000000000009 #
loop $-1 -1 $-1 $122 $123 $89 #
coedge $-1 -1 $-1 $124 $125 $113 $126 forward $88 $-1 #
loop $-1 -1 $-1 $71 $127 $89 #
plane-surface $-1 -1 $-1 9.0000000000000018 -5.5511151231257827e-016 7.0000000000000009 0 0 1 10 0 0 forward_v I I I I #
face $-1 -1 $-1 $128 $118 $2 $-1 $129 forward single #
loop $-1 -1 $-1 $-1 $130 $91 #
plane-surface $-1 -1 $-1 12.500000000000002 0.89999999999999869 7.0000000000000009 -1.1895246692412389e-016 1 0 0 0 10 forward_v I I I I #
coedge $-1 -1 $-1 $131 $132 $133 $134 reversed $92 $-1 #
coedge $-1 -1 $-1 $135 $94 $96 $116 reversed $78 $-1 #
coedge $-1 -1 $-1 $94 $135 $131 $136 forward $78 $-1 #
coedge $-1 -1 $-1 $133 $97 $94 $112 forward $118 $-1 #
edge $-1 -1 $-1 $120 0 $137 0.70000000000000018 $94 $138 forward @7 unknown #
coedge $-1 -1 $-1 $96 $95 $102 $126 reversed $58 $-1 #
coedge $-1 -1 $-1 $130 $139 $95 $115 forward $106 $-1 #
edge $-1 -1 $-1 $140 0 $119 0.050000000000000155 $95 $141 forward @7 unknown #
edge $-1 -1 $-1 $142 0 $120 0.050000000000000155 $109 $143 forward @7 unknown #
coedge $-1 -1 $-1 $97 $133 $130 $144 forward $118 $-1 #
loop $-1 -1 $-1 $-1 $97 $105 #
vertex $-1 -1 $-1 $115 $145 #
vertex $-1 -1 $-1 $116 $146 #
straight-curve $-1 -1 $-1 5.5 0.89999999999999791 6.5 0 -10 0 F 0 F 0.18000000000000002 #
loop $-1 -1 $-1 $147 $148 $89 #
coedge $-1 -1 $-1 $149 $150 $151 $152 forward $101 $-1 #
coedge $-1 -1 $-1 $153 $102 $139 $154 forward $88 $-1 #
coedge $-1 -1 $-1 $102 $153 $135 $155 forward $88 $-1 #
edge $-1 -1 $-1 $142 -0.13500000000000009 $140 0.044999999999999922 $102 $156 forward @7 unknown #
coedge $-1 -1 $-1 $157 $158 $159 $160 forward $103 $-1 #
face $-1 -1 $-1 $161 $162 $2 $-1 $163 reversed single #
plane-surface $-1 -1 $-1 9 -1.7536477320783724e-015 6.4999999999999991 -3.0636541399841301e-030 -8.5171031260905513e-031 1 10 0 3.0636541399841299e-029 forward_v I I I I #
coedge $-1 -1 $-1 $164 $114 $117 $144 reversed $106 $-1 #
coedge $-1 -1 $-1 $165 $108 $110 $136 reversed $92 $-1 #
coedge $-1 -1 $-1 $108 $165 $164 $166 forward $92 $-1 #
coedge $-1 -1 $-1 $117 $111 $108 $134 forward $118 $-1 #
edge $-1 -1 $-1 $137 0 $167 0.18000000000000002 $108 $168 forward @7 unknown #
coedge $-1 -1 $-1 $110 $109 $125 $155 reversed $78 $-1 #
edge $-1 -1 $-1 $169 0 $137 0.050000000000000155 $131 $170 forward @7 unknown #
vertex $-1 -1 $-1 $136 $171 #
straight-curve $-1 -1 $-1 5.5 -0.90000000000000235 6.5 10 1.1895246692412389e-015 0 F 0 F 0.70000000000000018 #
coedge $-1 -1 $-1 $114 $164 $124 $154 reversed $106 $-1 #
vertex $-1 -1 $-1 $126 $172 #
straight-curve $-1 -1 $-1 5.5 0.89999999999999791 7.0000000000000009 0 0 -10 I I #
vertex $-1 -1 $-1 $126 $173 #
straight-curve $-1 -1 $-1 5.5 -0.90000000000000235 7.0000000000000009 0 0 -10 I I #
edge $-1 -1 $-1 $167 -0 $119 0.70000000000000018 $130 $174 forward @7 unknown #
point $-1 -1 $-1 5.5 0.89999999999999791 6.4999999999999991 #
point $-1 -1 $-1 5.5 -0.90000000000000235 6.4999999999999991 #
loop $-1 -1 $-1 $-1 $175 $89 #
coedge $-1 -1 $-1 $148 $148 $176 $177 forward $122 $-1 #
coedge $-1 -1 $-1 $178 $123 $179 $180 forward $101 $-1 #
coedge $-1 -1 $-1 $123 $178 $181 $182 forward $101 $-1 #
coedge $-1 -1 $-1 $183 $184 $123 $152 reversed $162 $-1 #
edge $-1 -1 $-1 $185 -0.26000000000000012 $186 -0.080000000000000085 $123 $187 forward @7 unknown #
coedge $-1 -1 $-1 $125 $124 $165 $188 forward $88 $-1 #
edge $-1 -1 $-1 $140 -0.52500000000000013 $189 0.17500000000000004 $124 $190 forward @7 unknown #
edge $-1 -1 $-1 $169 -0.52500000000000013 $142 0.17500000000000004 $125 $191 forward @7 unknown #
straight-curve $-1 -1 $-1 5.5 0.44999999999999868 7.0000000000000009 0 10 0 I I #
coedge $-1 -1 $-1 $192 $127 $193 $194 reversed $103 $-1 #
coedge $-1 -1 $-1 $127 $195 $196 $197 forward $103 $-1 #
coedge $-1 -1 $-1 $198 $199 $127 $160 reversed $200 $-1 #
edge $-1 -1 $-1 $201 0.16000000000000003 $202 0.25000000000000033 $127 $203 forward @7 unknown #
face $-1 -1 $-1 $204 $205 $2 $-1 $206 reversed single #
loop $-1 -1 $-1 $-1 $207 $128 #
plane-surface $-1 -1 $-1 5.5 -1.6000000000000023 7.0000000000000009 -1 -0 -0 0 0 10 forward_v I I I I #
coedge $-1 -1 $-1 $139 $130 $132 $166 reversed $106 $-1 #
coedge $-1 -1 $-1 $132 $131 $153 $188 reversed $92 $-1 #
edge $-1 -1 $-1 $189 0 $167 0.050000000000000155 $164 $208 forward @7 unknown #
vertex $-1 -1 $-1 $166 $209 #
straight-curve $-1 -1 $-1 12.500000000000002 -0.90000000000000147 6.5 0 10 0 F 0 F 0.18000000000000002 #
vertex $-1 -1 $-1 $155 $210 #
straight-curve $-1 -1 $-1 12.500000000000002 -0.90000000000000147 7.0000000000000009 0 0 -10 I I #
point $-1 -1 $-1 12.500000000000002 -0.90000000000000147 6.4999999999999991 #
point $-1 -1 $-1 5.5 0.89999999999999791 7.0000000000000009 #
point $-1 -1 $-1 5.5 -0.90000000000000235 7.0000000000000009 #
straight-curve $-1 -1 $-1 12.500000000000002 0.89999999999999869 6.5 -10 -1.1895246692412389e-015 0 F 0 F 0.70000000000000018 #
coedge $-1 -1 $-1 $175 $175 $211 $212 forward $147 $-1 #
coedge $-1 -1 $-1 $176 $176 $148 $177 reversed $213 $-1 #
edge $-1 -1 $-1 $214 0 $214 6.2831853071795862 $148 $215 forward @7 unknown #
coedge $-1 -1 $-1 $150 $149 $216 $217 forward $101 $-1 #
coedge $-1 -1 $-1 $218 $219 $149 $180 reversed $220 $-1 #
edge $-1 -1 $-1 $186 -0.52500000000000013 $221 0.17500000000000004 $149 $222 forward @7 unknown #
coedge $-1 -1 $-1 $223 $224 $150 $182 reversed $205 $-1 #
edge $-1 -1 $-1 $225 -0.52500000000000013 $185 0.17500000000000004 $150 $226 forward @7 unknown #
coedge $-1 -1 $-1 $207 $151 $224 $227 forward $162 $-1 #
coedge $-1 -1 $-1 $151 $207 $218 $228 reversed $162 $-1 #
vertex $-1 -1 $-1 $152 $229 #
vertex $-1 -1 $-1 $152 $230 #
straight-curve $-1 -1 $-1 5.5 -0.80000000000000138 7.0000000000000009 0 10 0 I I #
edge $-1 -1 $-1 $189 -0.13499999999999998 $169 0.045000000000000047 $153 $231 forward @7 unknown #
vertex $-1 -1 $-1 $188 $232 #
straight-curve $-1 -1 $-1 10.750000000000002 0.89999999999999858 7.0000000000000009 10 1.1895246692412389e-015 0 I I #
straight-curve $-1 -1 $-1 7.2500000000000009 -0.90000000000000213 7.0000000000000009 -10 -1.1895246692412389e-015 0 I I #
coedge $-1 -1 $-1 $233 $157 $234 $235 reversed $103 $-1 #
coedge $-1 -1 $-1 $236 $237 $157 $194 forward $238 $-1 #
edge $-1 -1 $-1 $239 -1.8 $202 -1.25 $193 $240 forward @7 unknown #
coedge $-1 -1 $-1 $158 $241 $242 $243 forward $103 $-1 #
coedge $-1 -1 $-1 $244 $245 $158 $197 reversed $246 $-1 #
edge $-1 -1 $-1 $247 -0.52500000000000013 $201 0.17500000000000004 $158 $248 forward @7 unknown #
coedge $-1 -1 $-1 $249 $159 $245 $250 forward $200 $-1 #
coedge $-1 -1 $-1 $159 $249 $236 $251 reversed $200 $-1 #
loop $-1 -1 $-1 $-1 $249 $252 #
vertex $-1 -1 $-1 $160 $253 #
vertex $-1 -1 $-1 $251 $254 #
straight-curve $-1 -1 $-1 5.5000000000000027 2.4999999999999978 7.0000000000000009 -1.2335811384723919e-014 10 0 I I #
face $-1 -1 $-1 $255 $256 $2 $-1 $257 reversed single #
loop $-1 -1 $-1 $-1 $258 $161 #
plane-surface $-1 -1 $-1 5.5 -3.4000000000000026 7.0000000000000009 1.5860328923216517e-016 -1 0 0 0 -10 forward_v I I I I #
coedge $-1 -1 $-1 $184 $183 $259 $260 reversed $162 $-1 #
straight-curve $-1 -1 $-1 12.500000000000002 0.89999999999999869 7.0000000000000009 0 0 -10 I I #
point $-1 -1 $-1 12.500000000000002 0.89999999999999869 6.4999999999999991 #
point $-1 -1 $-1 12.500000000000002 -0.90000000000000147 7.0000000000000009 #
coedge $-1 -1 $-1 $211 $211 $175 $212 reversed $261 $-1 #
edge $-1 -1 $-1 $262 0 $262 6.2831853071795862 $175 $263 forward @7 unknown #
loop $-1 -1 $-1 $-1 $176 $264 #
vertex $-1 -1 $-1 $177 $265 #
ellipse-curve $-1 -1 $-1 18 0 7.0000000000000018 -0 -0 -1 2 0 0 1 I I #
coedge $-1 -1 $-1 $266 $267 $178 $217 reversed $256 $-1 #
edge $-1 -1 $-1 $221 -0.0099999999999999534 $225 0.17000000000000004 $178 $268 forward @7 unknown #
coedge $-1 -1 $-1 $269 $179 $184 $228 forward $220 $-1 #
coedge $-1 -1 $-1 $179 $269 $266 $270 reversed $220 $-1 #
loop $-1 -1 $-1 $-1 $269 $255 #
vertex $-1 -1 $-1 $217 $271 #
straight-curve $-1 -1 $-1 10.750000000000002 -1.6000000000000014 7.0000000000000009 10 1.1895246692412389e-015 0 I I #
coedge $-1 -1 $-1 $258 $181 $267 $272 forward $205 $-1 #
coedge $-1 -1 $-1 $181 $258 $183 $227 reversed $205 $-1 #
vertex $-1 -1 $-1 $182 $273 #
straight-curve $-1 -1 $-1 7.2500000000000009 -3.4000000000000021 7.0000000000000009 -10 -1.5860328923216517e-015 0 I I #
edge $-1 -1 $-1 $185 0 $274 0.050000000000000155 $224 $275 forward @7 unknown #
edge $-1 -1 $-1 $186 0 $276 0.050000000000000155 $184 $277 forward @7 unknown #
point $-1 -1 $-1 5.5 -3.4000000000000026 7.0000000000000009 #
point $-1 -1 $-1 5.5 -1.6000000000000023 7.0000000000000009 #
straight-curve $-1 -1 $-1 12.500000000000002 -0.45000000000000101 7.0000000000000009 0 -10 0 I I #
point $-1 -1 $-1 12.500000000000002 0.89999999999999869 7.0000000000000009 #
coedge $-1 -1 $-1 $278 $192 $279 $280 reversed $103 $-1 #
coedge $-1 -1 $-1 $281 $282 $192 $235 forward $283 $-1 #
edge $-1 -1 $-1 $284 -3.1415926535897931 $239 0 $234 $285 forward @7 unknown #
coedge $-1 -1 $-1 $286 $193 $199 $251 forward $238 $-1 #
coedge $-1 -1 $-1 $193 $287 $281 $288 forward $238 $-1 #
loop $-1 -1 $-1 $-1 $236 $289 #
vertex $-1 -1 $-1 $288 $290 #
straight-curve $-1 -1 $-1 18 5.0000000000000018 7.0000000000000009 10 1.2335811384723961e-015 0 F -1.8 F -0 #
coedge $-1 -1 $-1 $195 $291 $292 $293 reversed $103 $-1 #
coedge $-1 -1 $-1 $294 $295 $195 $243 reversed $296 $-1 #
edge $-1 -1 $-1 $297 -0.29500000000000032 $247 -0.20499999999999996 $195 $298 forward @7 unknown #
coedge $-1 -1 $-1 $299 $196 $295 $300 forward $246 $-1 #
coedge $-1 -1 $-1 $196 $299 $198 $250 reversed $246 $-1 #
loop $-1 -1 $-1 $-1 $299 $301 #
vertex $-1 -1 $-1 $243 $302 #
straight-curve $-1 -1 $-1 7.2500000000000009 4.0999999999999979 7.0000000000000009 -10 -7.9301644616082585e-016 0 I I #
coedge $-1 -1 $-1 $199 $198 $303 $304 reversed $200 $-1 #
edge $-1 -1 $-1 $201 0 $305 0.050000000000000044 $245 $306 forward @7 unknown #
edge $-1 -1 $-1 $202 -0.35000000000000003 $307 -0.29999999999999999 $236 $308 forward @7 unknown #
face $-1 -1 $-1 $301 $200 $2 $-1 $309 reversed single #
point $-1 -1 $-1 5.5 4.0999999999999979 7.0000000000000009 #
point $-1 -1 $-1 5.4999999999999991 5.0000000000000009 7.0000000000000009 #
face $-1 -1 $-1 $310 $220 $2 $-1 $311 reversed single #
loop $-1 -1 $-1 $-1 $312 $204 #
plane-surface $-1 -1 $-1 12.500000000000002 -3.4000000000000012 7.0000000000000009 1 0 0 0 0 -10 forward_v I I I I #
coedge $-1 -1 $-1 $224 $223 $313 $314 reversed $205 $-1 #
coedge $-1 -1 $-1 $313 $315 $207 $260 forward $316 $-1 #
edge $-1 -1 $-1 $276 0 $274 0.18000000000000002 $207 $317 forward @7 unknown #
loop $-1 -1 $-1 $-1 $211 $318 #
vertex $-1 -1 $-1 $212 $319 #
ellipse-curve $-1 -1 $-1 0 0 7.0000000000000018 -0 -0 -1 2 0 0 1 I I #
face $-1 -1 $-1 $318 $320 $2 $-1 $321 reversed single #
point $-1 -1 $-1 20 0 7.0000000000000009 #
coedge $-1 -1 $-1 $312 $216 $219 $270 forward $256 $-1 #
coedge $-1 -1 $-1 $216 $312 $223 $272 reversed $256 $-1 #
straight-curve $-1 -1 $-1 12.500000000000002 -1.7000000000000011 7.0000000000000009 0 -10 0 I I #
coedge $-1 -1 $-1 $219 $218 $315 $322 reversed $220 $-1 #
edge $-1 -1 $-1 $221 0 $323 0.050000000000000155 $219 $324 forward @7 unknown #
point $-1 -1 $-1 12.500000000000002 -1.6000000000000014 7.0000000000000009 #
edge $-1 -1 $-1 $225 0 $325 0.050000000000000155 $267 $326 forward @7 unknown #
point $-1 -1 $-1 12.500000000000002 -3.4000000000000012 7.0000000000000009 #
vertex $-1 -1 $-1 $227 $327 #
straight-curve $-1 -1 $-1 5.5 -3.4000000000000026 7.0000000000000009 0 0 -10 I I #
vertex $-1 -1 $-1 $228 $328 #
straight-curve $-1 -1 $-1 5.5 -1.6000000000000023 7.0000000000000009 0 0 -10 I I #
coedge $-1 -1 $-1 $329 $233 $330 $331 forward $103 $-1 #
coedge $-1 -1 $-1 $332 $333 $233 $280 forward $334 $-1 #
edge $-1 -1 $-1 $335 -0.54999999999999982 $284 -0 $279 $336 forward @7 unknown #
coedge $-1 -1 $-1 $337 $234 $237 $288 reversed $283 $-1 #
coedge $-1 -1 $-1 $234 $337 $332 $338 forward $283 $-1 #
loop $-1 -1 $-1 $-1 $234 $339 #
vertex $-1 -1 $-1 $338 $340 #
ellipse-curve $-1 -1 $-1 0 0 7.0000000000000009 -0 -0 -1 -6.1232339957367663e-016 5 0 1 F -3.1415926535897931 F -0 #
coedge $-1 -1 $-1 $341 $236 $342 $343 forward $238 $-1 #
coedge $-1 -1 $-1 $237 $344 $345 $346 forward $238 $-1 #
edge $-1 -1 $-1 $347 0 $239 0.70000000000000007 $237 $348 forward @7 tangent #
face $-1 -1 $-1 $349 $238 $2 $-1 $350 forward single #
point $-1 -1 $-1 -6.1232339957367663e-016 5 7.0000000000000009 #
coedge $-1 -1 $-1 $241 $351 $352 $353 reversed $103 $-1 #
coedge $-1 -1 $-1 $344 $341 $241 $293 forward $238 $-1 #
edge $-1 -1 $-1 $297 -0.54999999999999982 $354 0 $292 $240 forward @7 unknown #
coedge $-1 -1 $-1 $355 $242 $341 $356 reversed $296 $-1 #
coedge $-1 -1 $-1 $242 $355 $244 $300 reversed $296 $-1 #
loop $-1 -1 $-1 $-1 $355 $357 #
vertex $-1 -1 $-1 $293 $358 #
straight-curve $-1 -1 $-1 12.500000000000002 2.0499999999999989 7.0000000000000009 0 -10 0 I I #
coedge $-1 -1 $-1 $245 $244 $359 $360 reversed $246 $-1 #
edge $-1 -1 $-1 $247 0 $361 0.050000000000000044 $295 $362 forward @7 unknown #
face $-1 -1 $-1 $363 $246 $2 $-1 $364 reversed single #
point $-1 -1 $-1 12.500000000000002 4.0999999999999988 7.0000000000000009 #
coedge $-1 -1 $-1 $359 $342 $249 $304 forward $365 $-1 #
edge $-1 -1 $-1 $307 0 $305 0.090000000000000302 $249 $366 forward @7 unknown #
vertex $-1 -1 $-1 $250 $367 #
straight-curve $-1 -1 $-1 5.5 4.0999999999999979 7.0000000000000009 0 0 -10 I I #
vertex $-1 -1 $-1 $251 $368 #
straight-curve $-1 -1 $-1 5.4999999999999991 5.0000000000000009 3.5000000000000004 0 0 -10 I I #
plane-surface $-1 -1 $-1 5.4999999999999991 5.0000000000000009 7.0000000000000009 -1 -1.233581138472392e-015 -0 0 0 10 forward_v I I I I #
face $-1 -1 $-1 $357 $316 $2 $-1 $369 forward single #
plane-surface $-1 -1 $-1 12.500000000000002 -1.6000000000000014 7.0000000000000009 -1.1895246692412389e-016 1 0 0 0 10 forward_v I I I I #
coedge $-1 -1 $-1 $267 $266 $370 $371 reversed $256 $-1 #
coedge $-1 -1 $-1 $370 $259 $258 $314 forward $316 $-1 #
edge $-1 -1 $-1 $274 0 $325 0.70000000000000018 $258 $372 forward @7 unknown #
coedge $-1 -1 $-1 $259 $370 $269 $322 forward $316 $-1 #
loop $-1 -1 $-1 $-1 $259 $310 #
straight-curve $-1 -1 $-1 5.5 -1.6000000000000023 6.5 0 -10 0 F 0 F 0.18000000000000002 #
face $-1 -1 $-1 $373 $374 $2 $-1 $375 reversed single #
point $-1 -1 $-1 2 0 7.0000000000000009 #
loop $-1 -1 $-1 $213 $376 $264 #
cone-surface $-1 -1 $-1 18 0 -23.545048698602532 0 0 1 2 0 0 1 I I -0 1 2 reversed I I I I #
edge $-1 -1 $-1 $323 -0 $276 0.70000000000000018 $269 $377 forward @7 unknown #
vertex $-1 -1 $-1 $270 $378 #
straight-curve $-1 -1 $-1 12.500000000000002 -1.6000000000000014 7.0000000000000009 0 0 -10 I I #
vertex $-1 -1 $-1 $272 $379 #
straight-curve $-1 -1 $-1 12.500000000000002 -3.4000000000000012 7.0000000000000009 0 0 -10 I I #
point $-1 -1 $-1 5.5 -3.4000000000000026 6.4999999999999991 #
point $-1 -1 $-1 5.5 -1.6000000000000023 6.4999999999999991 #
coedge $-1 -1 $-1 $380 $278 $381 $382 forward $103 $-1 #
coedge $-1 -1 $-1 $383 $384 $278 $331 reversed $385 $-1 #
edge $-1 -1 $-1 $335 -0.2950000000000006 $386 -0.20500000000000032 $278 $387 forward @7 unknown #
coedge $-1 -1 $-1 $388 $279 $282 $338 reversed $334 $-1 #
coedge $-1 -1 $-1 $279 $389 $383 $390 forward $334 $-1 #
loop $-1 -1 $-1 $-1 $391 $349 #
vertex $-1 -1 $-1 $280 $392 #
straight-curve $-1 -1 $-1 1.224646799147355e-015 -5.0000000000000071 7.0000000000000009 -10 -2.4671622769447922e-015 -0 F -1.8 F -0 #
coedge $-1 -1 $-1 $282 $281 $393 $394 forward $283 $-1 #
edge $-1 -1 $-1 $395 0 $284 0.70000000000000007 $282 $396 forward @7 tangent #
face $-1 -1 $-1 $397 $283 $2 $-1 $398 forward single #
point $-1 -1 $-1 1.224646799147355e-015 -5.0000000000000071 7.0000000000000009 #
coedge $-1 -1 $-1 $292 $286 $294 $356 forward $238 $-1 #
coedge $-1 -1 $-1 $303 $399 $286 $343 reversed $365 $-1 #
edge $-1 -1 $-1 $307 0.099999999999999867 $400 0.80000000000000016 $286 $401 forward @7 unknown #
coedge $-1 -1 $-1 $287 $292 $402 $403 reversed $238 $-1 #
coedge $-1 -1 $-1 $404 $393 $287 $346 reversed $405 $-1 #
edge $-1 -1 $-1 $406 0 $347 1.8 $287 $407 forward @7 unknown #
vertex $-1 -1 $-1 $346 $408 #
straight-curve $-1 -1 $-1 -6.1232339957367663e-016 5 0 0 0 10 I I #
face $-1 -1 $-1 $264 $334 $2 $-1 $409 forward single #
plane-surface $-1 -1 $-1 -6.1232339957367663e-016 5 0 -1.2335811384723962e-016 1 0 0 0 10 forward_v I I I I #
coedge $-1 -1 $-1 $291 $380 $410 $411 reversed $103 $-1 #
coedge $-1 -1 $-1 $412 $402 $291 $353 forward $413 $-1 #
edge $-1 -1 $-1 $354 -3.1415926535897927 $414 0 $352 $415 forward @7 unknown #
vertex $-1 -1 $-1 $403 $416 #
coedge $-1 -1 $-1 $295 $294 $399 $417 reversed $296 $-1 #
edge $-1 -1 $-1 $400 0.29999999999999999 $297 0.35000000000000003 $341 $418 forward @7 unknown #
face $-1 -1 $-1 $252 $296 $2 $-1 $419 reversed single #
point $-1 -1 $-1 12.500000000000002 5.0000000000000018 7.0000000000000009 #
coedge $-1 -1 $-1 $399 $303 $299 $360 forward $365 $-1 #
edge $-1 -1 $-1 $305 0 $361 0.70000000000000018 $299 $420 forward @7 unknown #
vertex $-1 -1 $-1 $300 $421 #
straight-curve $-1 -1 $-1 12.500000000000002 4.0999999999999988 7.0000000000000009 0 0 -10 I I #
face $-1 -1 $-1 $422 $365 $2 $-1 $423 forward single #
plane-surface $-1 -1 $-1 5.5 4.0999999999999979 7.0000000000000009 7.9301644616082587e-017 -1 0 0 0 -10 forward_v I I I I #
loop $-1 -1 $-1 $-1 $399 $363 #
straight-curve $-1 -1 $-1 5.4999999999999991 5.0000000000000009 6.5 1.2335811384723919e-014 -10 0 F 0 F 0.090000000000000302 #
point $-1 -1 $-1 5.5 4.0999999999999979 6.5 #
point $-1 -1 $-1 5.4999999999999991 5.0000000000000009 6.5 #
plane-surface $-1 -1 $-1 9 -2.5000000000000022 6.4999999999999991 -3.0636541399841315e-030 8.3467610635687877e-030 1 10 0 3.0636541399841316e-029 forward_v I I I I #
coedge $-1 -1 $-1 $315 $313 $312 $371 forward $316 $-1 #
edge $-1 -1 $-1 $325 0 $323 0.17999999999999999 $312 $424 forward @7 unknown #
straight-curve $-1 -1 $-1 5.5 -3.4000000000000026 6.5 10 1.5860328923216517e-015 0 F 0 F 0.70000000000000018 #
face $-1 -1 $-1 $339 $413 $2 $-1 $425 forward single #
loop $-1 -1 $-1 $261 $426 $318 #
cone-surface $-1 -1 $-1 0 0 -23.545048698602532 0 0 1 2 0 0 1 I I -0 1 2 reversed I I I I #
coedge $-1 -1 $-1 $376 $376 $427 $428 reversed $320 $-1 #
straight-curve $-1 -1 $-1 12.500000000000002 -1.6000000000000014 6.5 -10 -1.1895246692412389e-015 0 F 0 F 0.70000000000000018 #
point $-1 -1 $-1 12.500000000000002 -1.6000000000000014 6.4999999999999991 #
point $-1 -1 $-1 12.500000000000002 -3.4000000000000012 6.4999999999999991 #
coedge $-1 -1 $-1 $351 $329 $429 $430 forward $103 $-1 #
coedge $-1 -1 $-1 $431 $432 $329 $382 reversed $433 $-1 #
edge $-1 -1 $-1 $386 -0.52500000000000013 $434 0.17500000000000004 $329 $435 forward @7 unknown #
coedge $-1 -1 $-1 $436 $330 $333 $390 reversed $385 $-1 #
coedge $-1 -1 $-1 $330 $436 $431 $437 reversed $385 $-1 #
loop $-1 -1 $-1 $-1 $436 $422 #
vertex $-1 -1 $-1 $331 $438 #
straight-curve $-1 -1 $-1 5.5000000000000027 -2.0499999999999994 7.0000000000000009 1.2335811384723919e-014 10 0 I I #
coedge $-1 -1 $-1 $439 $332 $440 $441 forward $334 $-1 #
coedge $-1 -1 $-1 $333 $391 $442 $443 forward $334 $-1 #
edge $-1 -1 $-1 $444 0.29999999999999999 $335 0.35000000000000003 $333 $445 forward @7 unknown #
coedge $-1 -1 $-1 $389 $410 $446 $447 forward $334 $-1 #
point $-1 -1 $-1 5.4999999999999991 -5.0000000000000053 7.0000000000000009 #
coedge $-1 -1 $-1 $345 $440 $337 $394 reversed $405 $-1 #
edge $-1 -1 $-1 $347 0 $395 3.1415926535897931 $337 $448 forward @7 unknown #
vertex $-1 -1 $-1 $394 $449 #
straight-curve $-1 -1 $-1 1.224646799147355e-015 -5.0000000000000071 0 0 0 10 I I #
face $-1 -1 $-1 $89 $450 $2 $-1 $451 reversed single #
cone-surface $-1 -1 $-1 0 0 0 0 0 1 -6.1232339957367663e-016 5 0 1 I I 0 1 5 forward I I I I #
coedge $-1 -1 $-1 $342 $359 $355 $417 forward $365 $-1 #
vertex $-1 -1 $-1 $356 $452 #
straight-curve $-1 -1 $-1 4.5000000000000009 5 6.5 10 1.2335811384723961e-015 -1.6369524571483815e-029 I I #
coedge $-1 -1 $-1 $352 $453 $344 $403 forward $413 $-1 #
edge $-1 -1 $-1 $406 0 $354 0.70000000000000007 $402 $454 forward @7 tangent #
coedge $-1 -1 $-1 $440 $345 $453 $455 reversed $405 $-1 #
loop $-1 -1 $-1 $-1 $345 $397 #
vertex $-1 -1 $-1 $346 $456 #
straight-curve $-1 -1 $-1 18 5.0000000000000018 0 -10 -1.2335811384723961e-015 0 F 0 F 1.8 #
point $-1 -1 $-1 -6.1232339957367663e-016 5 0 #
plane-surface $-1 -1 $-1 18.000000000000004 -5.0000000000000018 0 2.4671622769447924e-016 -1 0 0 0 -10 forward_v I I I I #
coedge $-1 -1 $-1 $391 $439 $351 $411 forward $334 $-1 #
edge $-1 -1 $-1 $414 -1.8 $457 -1.2500000000000002 $410 $336 forward @7 unknown #
coedge $-1 -1 $-1 $453 $352 $439 $458 reversed $413 $-1 #
loop $-1 -1 $-1 $-1 $352 $373 #
vertex $-1 -1 $-1 $458 $459 #
ellipse-curve $-1 -1 $-1 18 0 7.0000000000000009 0 0 -1 2.2204460492503131e-015 -5.0000000000000018 0 1 F -3.1415926535897931 F -0 #
point $-1 -1 $-1 18 5.0000000000000018 7.0000000000000009 #
edge $-1 -1 $-1 $361 0 $400 0.090000000000000357 $355 $460 forward @7 unknown #
straight-curve $-1 -1 $-1 12.500000000000002 5.0000000000000009 3.5000000000000004 0 0 10 I I #
plane-surface $-1 -1 $-1 12.500000000000002 4.0999999999999988 7.0000000000000009 1 0 0 0 0 -10 forward_v I I I I #
straight-curve $-1 -1 $-1 5.5 4.0999999999999979 6.5 10 7.9301644616082585e-016 0 F 0 F 0.70000000000000018 #
point $-1 -1 $-1 12.500000000000002 4.0999999999999988 6.5 #
face $-1 -1 $-1 $461 $385 $2 $-1 $462 reversed single #
plane-surface $-1 -1 $-1 9.0000000000000018 4.5499999999999998 6.5 1.6369524571483863e-030 -3.9746481255089171e-029 1 10 0 -1.6369524571483863e-029 forward_v I I I I #
straight-curve $-1 -1 $-1 12.500000000000002 -3.4000000000000012 6.5 0 10 0 F 0 F 0.17999999999999999 #
cone-surface $-1 -1 $-1 18 0 0 0 0 1 2.2204460492503131e-015 -5.0000000000000018 0 1 I I 0 1 5.0000000000000018 forward I I I I #
coedge $-1 -1 $-1 $426 $426 $463 $464 reversed $374 $-1 #
coedge $-1 -1 $-1 $427 $427 $376 $428 forward $450 $-1 #
edge $-1 -1 $-1 $465 -3.1415926535897931 $465 3.1415926535897931 $427 $466 forward @7 unknown #
coedge $-1 -1 $-1 $467 $446 $380 $430 reversed $468 $-1 #
edge $-1 -1 $-1 $434 0.16000000000000036 $457 0.25000000000000067 $380 $469 forward @7 unknown #
coedge $-1 -1 $-1 $470 $381 $384 $437 forward $433 $-1 #
coedge $-1 -1 $-1 $381 $470 $467 $471 reversed $433 $-1 #
loop $-1 -1 $-1 $-1 $470 $472 #
vertex $-1 -1 $-1 $430 $473 #
straight-curve $-1 -1 $-1 10.750000000000002 -4.1000000000000014 7.0000000000000009 10 1.5860328923216517e-015 0 I I #
coedge $-1 -1 $-1 $384 $383 $474 $475 reversed $385 $-1 #
edge $-1 -1 $-1 $386 0 $476 0.050000000000000044 $384 $477 forward @7 unknown #
point $-1 -1 $-1 5.5 -4.1000000000000023 7.0000000000000009 #
coedge $-1 -1 $-1 $410 $388 $412 $458 forward $334 $-1 #
coedge $-1 -1 $-1 $393 $404 $388 $441 reversed $405 $-1 #
edge $-1 -1 $-1 $395 0 $478 1.8 $388 $479 forward @7 unknown #
coedge $-1 -1 $-1 $480 $474 $389 $443 reversed $481 $-1 #
edge $-1 -1 $-1 $482 0.099999999999999645 $444 0.80000000000000016 $389 $483 forward @7 unknown #
vertex $-1 -1 $-1 $390 $484 #
straight-curve $-1 -1 $-1 5.5 -5.0000000000000053 3.5000000000000004 0 0 10 I I #
coedge $-1 -1 $-1 $429 $485 $391 $447 reversed $468 $-1 #
edge $-1 -1 $-1 $457 -0.35000000000000003 $482 -0.29999999999999999 $391 $486 forward @7 unknown #
ellipse-curve $-1 -1 $-1 0 0 0 0 0 1 -6.1232339957367663e-016 5 0 1 F 0 F 3.1415926535897931 #
point $-1 -1 $-1 1.224646799147355e-015 -5.0000000000000071 0 #
loop $-1 -1 $-1 $487 $427 $397 #
plane-surface $-1 -1 $-1 9.0000000000000018 -5.5511151231257827e-016 0 0 0 1 10 0 0 forward_v I I I I #
point $-1 -1 $-1 12.500000000000002 5.0000000000000018 6.5 #
coedge $-1 -1 $-1 $402 $412 $404 $455 forward $413 $-1 #
straight-curve $-1 -1 $-1 18 5.0000000000000018 0 0 0 10 I I #
edge $-1 -1 $-1 $478 0 $406 3.1415926535897927 $453 $488 forward @7 unknown #
point $-1 -1 $-1 18 5.0000000000000018 0 #
vertex $-1 -1 $-1 $447 $489 #
edge $-1 -1 $-1 $478 0 $414 0.70000000000000007 $439 $490 forward @7 tangent #
point $-1 -1 $-1 18.000000000000004 -5.0000000000000018 7.0000000000000009 #
straight-curve $-1 -1 $-1 12.500000000000002 4.0999999999999988 6.5 0 10 0 F 0 F 0.090000000000000357 #
face $-1 -1 $-1 $472 $468 $2 $-1 $491 reversed single #
plane-surface $-1 -1 $-1 5.5 -4.1000000000000023 7.0000000000000009 -1 1.233581138472392e-015 0 0 0 10 forward_v I I I I #
coedge $-1 -1 $-1 $463 $463 $426 $464 forward $487 $-1 #
edge $-1 -1 $-1 $492 -3.1415926535897931 $492 3.1415926535897931 $463 $493 forward @7 unknown #
vertex $-1 -1 $-1 $428 $494 #
ellipse-curve $-1 -1 $-1 18 0 0 0 0 1 2 0 0 1 I I #
coedge $-1 -1 $-1 $485 $429 $432 $471 forward $468 $-1 #
loop $-1 -1 $-1 $-1 $485 $461 #
straight-curve $-1 -1 $-1 12.5 -2.4999999999999978 7.0000000000000009 2.4671622769447839e-014 -10 0 I I #
coedge $-1 -1 $-1 $432 $431 $495 $496 reversed $433 $-1 #
edge $-1 -1 $-1 $434 0 $497 0.050000000000000044 $432 $498 forward @7 unknown #
face $-1 -1 $-1 $499 $433 $2 $-1 $500 reversed single #
point $-1 -1 $-1 12.500000000000002 -4.1000000000000014 7.0000000000000009 #
coedge $-1 -1 $-1 $442 $495 $436 $475 forward $481 $-1 #
edge $-1 -1 $-1 $476 0 $444 0.090000000000000302 $436 $501 forward @7 unknown #
vertex $-1 -1 $-1 $437 $502 #
straight-curve $-1 -1 $-1 5.5 -4.1000000000000023 7.0000000000000009 0 0 -10 I I #
vertex $-1 -1 $-1 $441 $503 #
straight-curve $-1 -1 $-1 1.224646799147355e-015 -5.0000000000000071 0 10 2.4671622769447922e-015 0 F 0 F 1.8 #
coedge $-1 -1 $-1 $495 $442 $485 $504 forward $481 $-1 #
loop $-1 -1 $-1 $-1 $474 $499 #
vertex $-1 -1 $-1 $447 $505 #
straight-curve $-1 -1 $-1 13.5 -5.0000000000000036 6.5 -10 -2.4671622769447922e-015 -3.138743702238638e-029 I I #
point $-1 -1 $-1 5.4999999999999991 -5.0000000000000053 6.5 #
coedge $-1 -1 $-1 $446 $467 $480 $504 reversed $468 $-1 #
straight-curve $-1 -1 $-1 12.500000000000004 -5.0000000000000036 3.5000000000000004 0 0 -10 I I #
loop $-1 -1 $-1 $405 $463 $397 #
ellipse-curve $-1 -1 $-1 18 0 0 0 0 1 2.2204460492503131e-015 -5.0000000000000018 0 1 F 0 F 3.1415926535897931 #
point $-1 -1 $-1 12.500000000000004 -5.0000000000000044 7.0000000000000009 #
straight-curve $-1 -1 $-1 18.000000000000004 -5.0000000000000018 0 0 0 10 I I #
plane-surface $-1 -1 $-1 12.500000000000004 -5.0000000000000044 7.0000000000000009 1 2.4671622769447839e-015 0 0 0 -10 forward_v I I I I #
vertex $-1 -1 $-1 $464 $506 #
ellipse-curve $-1 -1 $-1 0 0 0 0 0 1 2 0 0 1 I I #
point $-1 -1 $-1 16 -2.4492935982947064e-016 0 #
coedge $-1 -1 $-1 $474 $480 $470 $496 forward $481 $-1 #
edge $-1 -1 $-1 $497 0 $476 0.70000000000000018 $470 $507 forward @7 unknown #
vertex $-1 -1 $-1 $471 $508 #
straight-curve $-1 -1 $-1 12.500000000000002 -4.1000000000000014 7.0000000000000009 0 0 -10 I I #
face $-1 -1 $-1 $289 $481 $2 $-1 $509 forward single #
plane-surface $-1 -1 $-1 12.500000000000002 -4.1000000000000014 7.0000000000000009 -1.5860328923216517e-016 1 0 0 0 10 forward_v I I I I #
straight-curve $-1 -1 $-1 5.5 -4.1000000000000023 6.5 -1.2335811384723919e-014 -10 0 F 0 F 0.090000000000000302 #
point $-1 -1 $-1 5.5 -4.1000000000000023 6.5 #
point $-1 -1 $-1 18.000000000000004 -5.0000000000000018 0 #
edge $-1 -1 $-1 $482 0 $497 0.090000000000000302 $485 $510 forward @7 unknown #
point $-1 -1 $-1 12.500000000000004 -5.0000000000000044 6.5 #
point $-1 -1 $-1 -2 -2.4492935982947064e-016 0 #
straight-curve $-1 -1 $-1 12.500000000000002 -4.1000000000000014 6.5 -10 -1.5860328923216517e-015 0 F 0 F 0.70000000000000018 #
point $-1 -1 $-1 12.500000000000002 -4.1000000000000014 6.5 #
plane-surface $-1 -1 $-1 9 -4.5500000000000016 6.5 -3.1387437022386492e-030 4.474318175572899e-029 1 10 0 3.1387437022386492e-029 forward_v I I I I #
straight-curve $-1 -1 $-1 12.500000000000004 -5.0000000000000044 6.5 -2.4671622769447839e-014 10 0 F 0 F 0.090000000000000302 #
End-of-ACIS-data 