**ABCDEFGHIJKLMNOPQRSTUVWXYZabcdefghijklmnopqrstuvwxyz**************************
**PARASOLID !"#$%&'()*+,-./:;<=>?@[\]^_`{|}~0123456789**************************
**PART1;
MC=AMD64;
MC_MODEL=AMD64 Family 16 Model 5 Stepping 2, AuthenticAMD;
MC_ID=unknown;
OS=Windows_NT;
OS_RELEASE=6.1;
FRU=Autodesk;
APPL=Autodesk Inventor 2011;
SITE=unknown;
USER=unknown;
FORMAT=text;
GUISE=transmit;
KEY=belt-clamp;
FILE=C:\Users\Greg\Desktop\belt-clamp.x_t;
DATE=Sun, 07 Oct 2012 18:21:51 GMT;
**PART2;
SCH=SCH_2200149_20000;
USFLD_SIZE=0;
**PART3;
**END_OF_HEADER*****************************************************************
T51 : TRANSMIT FILE created by modeller version 220014917 SCH_2200149_200000 12
 1 456 2 3 0 0 0 0 1e3 1e-8 0 0 0 1 0 1 1 4 5 6 7 8 9 10 0 0 0 0 81 1 2 456 11 1
 0 0 0 0 12 70 3 0 4 T1 0 0 4 20 1 13 13 13 4 4 0 1 0 14 0 0 15 0 50 5 327 0 16
 17 0 0 +.009 -555111512312578e-33 .007 0 0 1 .707106781186548 .707106781186548
 0 31 6 403 0 18 19 0 0 +0 0 0 0 0 1 -1224646799147352e-31 1 0 .005 29 7 455 0 2
0 21 0 .002 0 .007 19 8 2 0 1 15 0 22 V16 9 14 0 ?23 0 24 25 0 0 1 18 10 8 0 26
 0 27 28 ?1 17 26 0 29 30 23 10 31 32 0 33 -18 27 11 0 34 10 35 36 ?1 29 28 404
 0 10 0 37 .0125 .0016 .0065 29 37 405 0 38 28 36 .0125 .0034 .0065 18 38 9 0 31
 35 39 37 ?1 29 36 406 0 27 37 40 .0125 .0016 .007 29 40 407 0 35 36 41 .0125 .0
034 .007 18 35 13 0 42 27 38 40 ?1 29 41 408 0 43 40 44 .0055 .0034 .0065 18 43
 18 0 45 39 46 41 ?1 29 44 409 0 39 41 47 .0055 .0034 .007 18 39 20 0 48 38 43 4
4 ?1 29 47 410 0 49 44 50 .0055 .0016 .0065 18 49 25 0 51 46 52 47 ?1 29 50 411
 0 46 47 53 .0055 .0016 .007 18 46 27 0 54 43 49 50 ?1 29 53 412 0 52 50 55 .005
5 9e-4 .0065 18 52 38 0 56 49 57 53 ?1 29 55 413 0 58 53 59 .0055 -9e-4 .0065 18
 58 39 0 60 61 62 55 ?1 29 59 414 0 57 55 63 .0055 9e-4 .007 18 57 41 0 64 52 61
 59 ?1 29 63 415 0 61 59 65 .0055 -9e-4 .007 18 61 43 0 66 57 58 63 ?1 29 65 416
 0 67 63 68 .0125 -9e-4 .0065 18 67 48 0 69 62 70 65 ?1 29 68 417 0 62 65 71 .01
25 -9e-4 .007 18 62 50 0 72 58 67 68 ?1 29 71 418 0 73 68 74 .0125 9e-4 .0065 18
 73 55 0 75 70 76 71 ?1 29 74 419 0 70 71 77 .0125 9e-4 .007 18 70 57 0 78 67 73
 74 ?1 29 77 420 0 76 74 79 .0055 -.0016 .0065 18 76 68 0 80 73 81 77 ?1 29 79 4
21 0 82 77 83 .0055 -.0034 .0065 18 82 69 0 84 85 86 79 ?1 29 83 422 0 81 79 87
 .0055 -.0016 .007 18 81 71 0 88 76 85 83 ?1 29 87 423 0 85 83 89 .0055 -.0034 .
007 18 85 73 0 90 81 82 87 ?1 29 89 424 0 91 87 92 .0125 -.0034 .0065 18 91 78 0
 93 86 94 89 ?1 29 92 425 0 86 89 95 .0125 -.0034 .007 18 86 80 0 96 82 91 92 ?1
 29 95 426 0 97 92 98 .0125 -.0016 .0065 18 97 85 0 99 94 100 95 ?1 29 98 427 0
 94 95 101 .0125 -.0016 .007 18 94 87 0 102 91 97 98 ?1 29 101 428 0 100 98 103
 .0125 .0041 .0065 18 100 98 0 104 97 105 101 ?1 29 103 429 0 106 101 107 .0125
 .005 .0065 18 106 99 0 108 109 110 103 ?1 29 107 430 0 105 103 111 .0125 .0041
 .007 18 105 101 0 112 100 109 107 ?1 29 111 431 0 109 107 113 .0125 .005 .007 1
8 109 103 0 114 105 106 111 ?1 29 113 432 0 110 111 115 .0055 .005 .0065 18 110
 108 0 116 106 117 113 ?1 29 115 433 0 118 113 119 .0055 .0041 .0065 18 118 109
 0 120 121 122 115 ?1 29 119 434 0 117 115 123 .0055 .005 .007 18 117 111 0 124
 110 121 119 ?1 29 123 435 0 121 119 125 .0055 .0041 .007 18 121 113 0 126 117 1
18 123 ?1 29 125 436 0 122 123 127 .0055 -.0041 .0065 18 122 125 0 128 118 129 1
25 ?1 29 127 437 0 130 125 131 .0055 -.005 .0065 18 130 126 0 132 133 134 127 ?1
 29 131 438 0 129 127 135 .0055 -.0041 .007 18 129 128 0 136 122 133 131 ?1 29 1
35 439 0 133 131 137 .0055 -.005 .007 18 133 130 0 138 129 130 135 ?1 29 137 440
 0 134 135 139 .0125 -.005 .0065 18 134 135 0 140 130 141 137 ?1 29 139 441 0 14
2 137 143 .0125 -.0041 .0065 18 142 136 0 144 145 146 139 ?1 29 143 442 0 141 13
9 147 .0125 -.005 .007 18 141 138 0 148 134 145 143 ?1 29 147 443 0 145 143 149
 .0125 -.0041 .007 18 145 140 0 150 141 142 147 ?1 29 149 444 0 146 147 151 .018
 .005 .007 18 146 152 0 152 142 153 149 ?1 29 151 445 0 153 149 154 .018 .005 0
 18 153 154 0 155 146 156 151 ?1 29 154 446 0 156 151 157 -612323399573677e-33 .
005 0 18 156 156 0 158 153 159 154 ?1 29 157 447 0 159 154 160 -612323399573677e
-33 .005 .007 18 159 158 0 161 156 162 157 ?1 29 160 448 0 162 157 163 122464679
9147354e-33 -.005 .007 18 162 163 0 164 159 165 160 ?1 29 163 449 0 165 160 166
 1224646799147354e-33 -.005 0 18 165 165 0 167 162 168 163 ?1 29 166 450 0 168 1
63 169 .018 -.005 0 18 168 167 0 170 165 171 166 ?1 29 169 451 0 171 166 172 .01
8 -.005 .007 18 171 169 0 173 168 174 169 ?1 29 172 452 0 174 169 175 .016 -2449
293598294705e-34 0 18 174 174 0 176 171 177 172 ?1 29 175 453 0 177 172 21 .02 0
 .007 18 177 177 0 178 174 179 175 ?1 29 21 454 0 179 175 7 -.002 -2449293598294
705e-34 0 18 179 181 0 180 177 20 21 ?1 17 180 0 181 180 180 179 182 183 0 182 -
18 20 184 0 184 179 0 7 ?1 17 184 0 185 184 184 20 186 187 0 186 -15 185 182 0 1
84 188 0 17 186 0 189 186 186 20 184 187 0 0 +16 187 183 0 ?186 190 0 191 0 0 1
 16 190 176 0 ?192 193 187 194 0 0 1 31 191 399 0 187 195 196 0 +0 0 .007 0 0 -1
 1 0 0 .002 31 195 398 0 183 194 191 0 +0 0 0 0 0 1 1 0 0 .002 31 196 400 0 197
 191 198 0 +.018 0 .007 0 0 -1 4440892098500625e-31 -1 0 .005 16 197 187 0 ?199
 200 201 196 0 0 1 31 198 401 0 201 196 19 0 +.018 0 0 0 0 1 4440892098500625e-3
1 -1 0 .005 16 201 188 0 ?202 197 203 198 0 0 1 31 19 402 0 204 198 6 0 +0 0 .00
7 0 0 -1 -1224646799147352e-31 1 0 .005 16 204 191 0 ?205 203 18 19 0 0 1 17 205
 0 206 158 164 159 207 204 0 0 +16 203 153 0 ?152 201 204 208 0 0 1 16 18 192 0
 ?209 204 210 6 0 0 1 17 209 0 206 164 158 165 211 18 0 0 +16 210 164 0 ?164 18
 212 213 0 0 1 17 164 0 206 205 209 162 167 210 0 214 +16 212 173 0 ?215 210 183
 216 0 0 1 30 213 392 0 210 217 218 0 +1224646799147354e-33 -.005 0 0 0 1 30 217
 391 0 219 220 213 0 +1224646799147354e-33 -.005 .007 -1 -2467162276944795e-31 0
 30 218 393 0 221 213 222 0 +1224646799147354e-33 -.005 0 1 2467162276944795e-31
 0 16 221 166 0 ?223 219 224 218 0 0 1 30 222 394 0 224 218 225 0 +.018 -.005 0
 0 0 1 16 224 168 0 ?226 221 200 222 0 0 1 30 225 395 0 200 222 216 0 +122464679
9147354e-33 -.005 .007 -1 -2467162276944795e-31 0 16 200 170 0 ?227 224 197 225
 0 0 1 31 216 396 0 212 225 194 0 +.018 0 0 0 0 1 1 0 0 .002 31 194 397 0 190 21
6 195 0 +.018 0 .007 0 0 -1 1 0 0 .002 17 227 0 228 140 226 141 173 200 0 0 +15
 228 161 0 140 229 0 17 140 0 228 230 227 134 231 232 0 233 +17 226 0 228 227 22
3 171 170 224 0 199 +17 173 0 234 235 148 171 227 200 0 226 -15 234 198 0 124 16
 236 17 235 0 234 237 173 146 199 197 0 0 -17 148 0 234 173 238 141 150 239 0 23
1 +17 238 0 234 148 136 145 240 241 0 0 +17 150 0 242 243 231 145 148 239 0 244
 -16 239 139 0 ?148 241 245 246 0 0 1 17 231 0 242 150 233 141 140 232 0 227 -15
 242 133 0 233 247 0 17 233 0 242 231 243 134 144 248 0 249 -16 232 137 0 ?140 2
50 251 252 0 0 1 16 250 159 0 ?253 254 232 220 0 0 1 16 251 148 0 ?230 232 255 2
56 0 0 1 30 252 380 0 232 257 246 0 +.0125 -.005 .0035 0 0 -1 30 257 379 0 248 2
58 252 0 +.0125 -.005 .0065 -2467162276944785e-30 1 0 30 246 381 0 239 252 259 0
 +.0125 -.0025 .007 2467162276944785e-30 -1 0 30 259 382 0 260 246 261 0 +.0125
 -.0041 .007 0 0 -1 16 260 141 0 ?243 262 263 259 0 0 1 30 261 383 0 264 259 265
 0 +.0125 -.0041 .0065 -1 -158603289232165e-30 0 16 264 144 0 ?266 248 267 261 0
 0 1 30 265 384 0 241 261 256 0 +.01075 -.0041 .007 1 158603289232165e-30 0 16 2
41 145 0 ?238 268 239 265 0 0 1 30 256 385 0 251 265 269 0 +.0135 -.005 .0065 -1
 -2467162276944795e-31 -313874370223864e-44 30 269 386 0 270 256 208 0 +.018 .00
5 .007 1 1233581138472396e-31 0 16 270 151 0 ?271 272 273 269 0 0 1 30 208 387 0
 203 269 274 0 +.018 .005 0 0 0 1 30 274 388 0 273 208 275 0 +.018 .005 0 -1 -12
33581138472396e-31 0 16 273 155 0 ?276 270 254 274 0 0 1 30 275 389 0 254 274 22
0 0 +-612323399573677e-33 .005 0 0 0 1 16 254 157 0 ?277 273 250 275 0 0 1 30 22
0 390 0 250 275 217 0 +.018 .005 .007 1 1233581138472396e-31 0 17 277 0 278 253
 276 159 158 254 0 205 +15 278 150 0 116 279 0 17 253 0 278 116 277 117 161 250
 0 0 +17 276 0 278 277 155 156 280 273 0 211 +17 158 0 206 209 205 156 277 254 0
 276 -15 206 190 0 205 281 0 14 281 189 282 ?283 284 206 4 285 +0 0 283 284 22 8
1 1 282 290 286 281 287 0 288 289 290 14 283 193 289 ?16 281 291 4 17 -0 0 16 28
1 22 14 284 185 288 ?281 188 292 4 293 +0 0 281 188 22 51 285 325 0 281 293 17 0
 +0 0 0 0 0 1 .005 -1224646799147352e-31 1 0 13 22 3 0 0 0 0 0 0 8 14 14 14 5 29
4 ?295 0 29 4 296 -0 0 295 0 22 81 1 294 206 286 14 297 0 0 298 299 14 295 15 29
8 ?300 14 301 4 302 -0 0 300 14 22 15 29 6 0 26 14 0 50 296 297 0 14 0 302 0 +.0
125 .0016 .007 1 0 0 0 .707106781186548 .707106781186548 50 302 298 0 295 296 30
3 0 +.0125 .0034 .007 -158603289232165e-30 1 0 .707106781186548 1121494613345552
e-31 .707106781186548 50 303 299 0 300 302 304 0 +.0055 .0034 .007 -1 0 0 0 .707
106781186548 .707106781186548 14 300 22 305 ?306 295 307 4 303 -0 0 306 295 22 5
0 304 300 0 306 303 308 0 +.0055 .0016 .007 118952466924124e-30 -1 0 .7071067811
86548 841120960009165e-31 .707106781186548 14 306 29 309 ?310 300 311 4 304 -0 0
 310 300 22 50 308 301 0 310 304 312 0 +.009 .0025 .0065 750895622545132e-46 -12
49175125159954e-45 1 .707106781186548 .707106781186548 830203863223662e-45 14 31
0 33 313 ?314 306 315 4 308 +0 0 314 306 22 50 312 302 0 314 308 316 0 +.0055 9e
-4 .007 -1 0 0 0 .707106781186548 .707106781186548 14 314 35 317 ?318 310 319 4
 312 -0 0 318 310 22 50 316 303 0 318 312 320 0 +.0055 -9e-4 .007 11895246692412
4e-30 -1 0 .707106781186548 841120960009165e-31 .707106781186548 14 318 45 321 ?
322 314 323 4 316 -0 0 322 314 22 50 320 304 0 322 316 324 0 +.0125 -9e-4 .007 1
 0 0 0 .707106781186548 .707106781186548 14 322 52 325 ?326 318 327 4 320 -0 0 3
26 318 22 50 324 305 0 326 320 328 0 +.0125 9e-4 .007 -118952466924124e-30 1 0 .
707106781186548 841120960009165e-31 .707106781186548 14 326 59 329 ?330 322 331
 4 324 -0 0 330 322 22 50 328 306 0 330 324 332 0 +.009 -175364773207837e-32 .00
65 -306365413998413e-44 -851710312609055e-45 1 .707106781186548 .707106781186548
 2768580755245395e-45 14 330 63 333 ?334 326 335 4 328 +0 0 334 326 22 50 332 30
7 0 334 328 336 0 +.0055 -.0016 .007 -1 0 0 0 .707106781186548 .707106781186548
 14 334 65 337 ?338 330 339 4 332 -0 0 338 330 22 50 336 308 0 338 332 340 0 +.0
055 -.0034 .007 158603289232165e-30 -1 0 .707106781186548 1121494613345552e-31 .
707106781186548 14 338 75 341 ?342 334 343 4 336 -0 0 342 334 22 50 340 309 0 34
2 336 344 0 +.0125 -.0034 .007 1 0 0 0 .707106781186548 .707106781186548 14 342
 82 345 ?346 338 347 4 340 -0 0 346 338 22 50 344 310 0 346 340 348 0 +.0125 -.0
016 .007 -118952466924124e-30 1 0 .707106781186548 841120960009165e-31 .70710678
1186548 14 346 89 349 ?350 342 351 4 344 -0 0 350 342 22 50 348 311 0 350 344 35
2 0 +.009 -.0025 .0065 -306365413998413e-44 834676106356879e-44 1 .7071067811865
48 .707106781186548 -373572073140031e-44 14 350 93 353 ?354 346 355 4 348 +0 0 3
54 346 22 50 352 312 0 354 348 356 0 +.0125 .0041 .007 1 0 0 0 .707106781186548
 .707106781186548 14 354 95 357 ?358 350 359 4 352 -0 0 358 350 22 50 356 313 0
 358 352 360 0 +.0055 .005 .007 -1 -1233581138472392e-30 0 -87227358815765e-29 .
707106781186548 .707106781186548 14 358 105 361 ?362 354 363 4 356 -0 0 362 354
 22 50 360 314 0 362 356 364 0 +.0055 .0041 .007 793016446160826e-31 -1 0 .70710
6781186548 560747306672777e-31 .707106781186548 14 362 115 365 ?366 358 367 4 36
0 -0 0 366 358 22 50 364 315 0 366 360 368 0 +.009 .00455 .0065 1636952457148385
e-45 -397464812550892e-43 1 .707106781186548 .707106781186548 2694750624084795e-
44 14 366 119 369 ?370 362 371 4 364 +0 0 370 362 22 50 368 316 0 370 364 372 0
 +.0055 -.0041 .007 -1 1233581138472392e-30 0 87227358815765e-29 .70710678118654
8 .707106781186548 14 370 122 373 ?247 366 374 4 368 -0 0 247 366 22 50 372 317
 0 247 368 375 0 +.0125 -.005 .007 1 2467162276944785e-30 0 -17445471763153e-28
 .707106781186548 .707106781186548 14 247 132 376 ?377 370 242 4 372 -0 0 377 37
0 22 50 375 318 0 377 372 378 0 +.0125 -.0041 .007 -158603289232165e-30 1 0 .707
106781186548 1121494613345552e-31 .707106781186548 14 377 142 379 ?380 247 381 4
 375 -0 0 380 247 22 50 378 319 0 380 375 382 0 +.009 -.00455 .0065 -31387437022
3865e-44 44743181755729e-42 1 .707106781186548 .707106781186548 -294187802750786
5e-44 14 380 146 383 ?279 377 384 4 378 +0 0 279 377 22 50 382 320 0 279 378 385
 0 +-612323399573677e-33 .005 0 -1233581138472396e-31 1 0 .707106781186548 87227
3588157653e-31 .707106781186548 14 279 149 386 ?229 380 278 4 382 +0 0 229 380 2
2 50 385 321 0 229 382 387 0 +.018 -.005 0 2467162276944795e-31 -1 0 .7071067811
86548 1744547176315305e-31 .707106781186548 14 229 160 388 ?389 279 228 4 385 +0
 0 389 279 22 51 387 322 0 389 385 390 0 +.018 0 -.02354504869860255 0 0 1 .002
 1 0 0 14 389 171 391 ?188 229 392 4 387 -0 0 188 229 22 51 390 323 0 188 387 29
3 0 +0 0 -.02354504869860255 0 0 1 .002 1 0 0 14 188 178 393 ?284 389 181 4 390
 -0 0 284 389 22 51 293 324 0 284 390 285 0 +.018 0 0 0 0 1 .005 444089209850062
5e-31 -1 0 81 1 393 284 286 188 394 0 391 288 395 15 181 179 0 180 188 185 80 1
 286 396 397 8015 0 0 0 0 3 5 0 0 0 FFFFTFFFFFFFFF2 81 2 394 283 396 188 398 393
 399 400 401 402 81 1 391 281 286 389 399 0 388 393 403 81 1 288 287 286 284 400
 0 393 282 404 83 1 395 0 81 2 400 286 396 284 405 288 394 287 406 407 83 1 404
 0 80 2 396 408 409 8014 0 0 0 0 3 5 0 0 0 FFFFTFFFFFFFFF2 1 81 1 405 285 410 28
4 0 400 398 411 412 81 2 287 289 396 281 411 282 400 413 414 415 83 4 406 .66655
9437904324 0 .607613361335597 .525490196078431 82 1 407 60 81 1 411 288 410 281
 0 287 405 416 417 81 2 413 292 396 283 416 289 287 418 419 420 83 4 414 .666559
437904324 0 .607613361335597 .525490196078431 82 1 415 60 81 1 416 291 410 283 0
 413 411 421 422 81 1 289 293 286 283 413 0 282 423 424 81 2 418 295 396 16 421
 423 413 0 425 426 83 4 419 .666559437904324 0 .607613361335597 .525490196078431
 82 1 420 60 14 16 197 423 ?0 283 234 4 5 +0 0 0 283 22 81 1 421 294 410 16 0 41
8 416 0 427 81 1 423 296 286 16 418 0 289 0 428 83 4 425 .666559437904324 0 .607
613361335597 .525490196078431 82 1 426 60 83 1 428 0 80 1 410 0 429 8001 0 0 0 0
 3 5 0 0 0 FFFFTFTFFFFFFF2 83 3 427 .571241994698842 .571241994698842 .599999984
105428 79 15 429 SDL/TYSA_COLOUR83 1 424 0 83 3 422 .571241994698842 .5712419946
98842 .599999984105428 83 3 417 .571241994698842 .571241994698842 .5999999841054
28 81 1 398 282 410 188 0 394 430 405 431 83 3 412 .571241994698842 .57124199469
8842 .599999984105428 81 1 430 279 410 389 0 399 432 398 433 83 3 431 .826143662
134806 .830065349737803 .832679669062297 81 2 399 280 396 389 430 391 434 394 43
5 436 81 1 432 276 410 229 0 434 437 430 438 83 3 433 .826143662134806 .83006534
9737803 .832679669062297 81 2 434 277 396 229 432 388 439 399 440 441 81 1 437 2
73 410 279 0 439 442 432 443 83 3 438 .571241994698842 .571241994698842 .5999999
84105428 81 2 439 274 396 279 437 386 444 434 445 446 81 1 442 270 410 380 0 444
 447 437 448 83 3 443 .571241994698842 .571241994698842 .599999984105428 81 2 44
4 271 396 380 442 383 449 439 450 451 81 1 447 267 410 377 0 449 452 442 453 83
 3 448 .826143662134806 .830065349737803 .832679669062297 81 2 449 268 396 377 4
47 379 454 444 455 456 81 1 452 264 410 247 0 454 457 447 458 83 3 453 .82614366
2134806 .830065349737803 .832679669062297 81 2 454 265 396 247 452 376 459 449 4
60 461 81 1 457 261 410 370 0 459 462 452 463 83 3 458 .826143662134806 .8300653
49737803 .832679669062297 81 2 459 262 396 370 457 373 464 454 465 466 81 1 462
 258 410 366 0 464 467 457 468 83 3 463 .826143662134806 .830065349737803 .83267
9669062297 81 2 464 259 396 366 462 369 469 459 470 471 81 1 467 255 410 362 0 4
69 472 462 473 83 3 468 .826143662134806 .830065349737803 .832679669062297 81 2
 469 256 396 362 467 365 474 464 475 476 81 1 472 252 410 358 0 474 477 467 478
 83 3 473 .826143662134806 .830065349737803 .832679669062297 81 2 474 253 396 35
8 472 361 479 469 480 481 81 1 477 249 410 354 0 479 482 472 483 83 3 478 .82614
3662134806 .830065349737803 .832679669062297 81 2 479 250 396 354 477 357 484 47
4 485 486 81 1 482 246 410 350 0 484 487 477 488 83 3 483 .826143662134806 .8300
65349737803 .832679669062297 81 2 484 247 396 350 482 353 489 479 490 491 81 1 4
87 243 410 346 0 489 492 482 493 83 3 488 .826143662134806 .830065349737803 .832
679669062297 81 2 489 244 396 346 487 349 494 484 495 496 81 1 492 240 410 342 0
 494 497 487 498 83 3 493 .826143662134806 .830065349737803 .832679669062297 81
 2 494 241 396 342 492 345 499 489 500 501 81 1 497 237 410 338 0 499 502 492 50
3 83 3 498 .826143662134806 .830065349737803 .832679669062297 81 2 499 238 396 3
38 497 341 504 494 505 506 81 1 502 234 410 334 0 504 507 497 508 83 3 503 .8261
43662134806 .830065349737803 .832679669062297 81 2 504 235 396 334 502 337 509 4
99 510 511 81 1 507 231 410 330 0 509 512 502 513 83 3 508 .826143662134806 .830
065349737803 .832679669062297 81 2 509 232 396 330 507 333 514 504 515 516 81 1
 512 228 410 326 0 514 517 507 518 83 3 513 .826143662134806 .830065349737803 .8
32679669062297 81 2 514 229 396 326 512 329 519 509 520 521 81 1 517 225 410 322
 0 519 522 512 523 83 3 518 .826143662134806 .830065349737803 .832679669062297 8
1 2 519 226 396 322 517 325 524 514 525 526 81 1 522 222 410 318 0 524 527 517 5
28 83 3 523 .826143662134806 .830065349737803 .832679669062297 81 2 524 223 396
 318 522 321 529 519 530 531 81 1 527 219 410 314 0 529 532 522 533 83 3 528 .82
6143662134806 .830065349737803 .832679669062297 81 2 529 220 396 314 527 317 534
 524 535 536 81 1 532 216 410 310 0 534 537 527 538 83 3 533 .826143662134806 .8
30065349737803 .832679669062297 81 2 534 217 396 310 532 313 539 529 540 541 81
 1 537 213 410 306 0 539 542 532 543 83 3 538 .826143662134806 .830065349737803
 .832679669062297 81 2 539 214 396 306 537 309 544 534 545 546 81 1 542 210 410
 300 0 544 547 537 548 83 3 543 .826143662134806 .830065349737803 .8326796690622
97 81 2 544 211 396 300 542 305 549 539 550 551 81 1 547 207 410 295 0 549 552 5
42 553 83 3 548 .826143662134806 .830065349737803 .832679669062297 81 2 549 208
 396 295 547 298 297 544 554 555 81 1 552 204 410 14 0 297 0 547 556 83 3 553 .8
26143662134806 .830065349737803 .832679669062297 81 2 297 205 396 14 552 294 0 5
49 557 558 83 3 556 .826143662134806 .830065349737803 .832679669062297 83 4 557
 .780392156862745 .207843137254902 .705836814989854 .803936290975588 82 1 558 31
 81 1 298 209 286 295 549 0 294 305 559 83 4 554 .780392156862745 .2078431372549
02 .705836814989854 .803936290975588 82 1 555 31 81 1 305 212 286 300 544 0 298
 309 560 83 1 559 0 81 1 309 215 286 306 539 0 305 313 561 83 1 560 0 81 1 313 2
18 286 310 534 0 309 317 562 83 1 561 0 81 1 317 221 286 314 529 0 313 321 563 8
3 1 562 0 81 1 321 224 286 318 524 0 317 325 564 83 1 563 0 81 1 325 227 286 322
 519 0 321 329 565 83 1 564 0 81 1 329 230 286 326 514 0 325 333 566 83 1 565 0
 81 1 333 233 286 330 509 0 329 337 567 83 1 566 0 81 1 337 236 286 334 504 0 33
3 341 568 83 1 567 0 81 1 341 239 286 338 499 0 337 345 569 83 1 568 0 81 1 345
 242 286 342 494 0 341 349 570 83 1 569 0 81 1 349 245 286 346 489 0 345 353 571
 83 1 570 0 81 1 353 248 286 350 484 0 349 357 572 83 1 571 0 81 1 357 251 286 3
54 479 0 353 361 573 83 1 572 0 81 1 361 254 286 358 474 0 357 365 574 83 1 573
 0 81 1 365 257 286 362 469 0 361 369 575 83 1 574 0 81 1 369 260 286 366 464 0
 365 373 576 83 1 575 0 81 1 373 263 286 370 459 0 369 376 577 83 1 576 0 81 1 3
76 266 286 247 454 0 373 379 578 83 1 577 0 81 1 379 269 286 377 449 0 376 383 5
79 83 1 578 0 81 1 383 272 286 380 444 0 379 386 580 83 1 579 0 81 1 386 275 286
 279 439 0 383 388 581 83 1 580 0 81 1 388 278 286 229 434 0 386 391 582 83 1 58
1 0 83 1 582 0 83 4 550 .780392156862745 .207843137254902 .705836814989854 .8039
36290975588 82 1 551 31 83 4 545 .780392156862745 .207843137254902 .705836814989
854 .803936290975588 82 1 546 31 83 4 540 .780392156862745 .207843137254902 .705
836814989854 .803936290975588 82 1 541 31 83 4 535 .780392156862745 .20784313725
4902 .705836814989854 .803936290975588 82 1 536 31 83 4 530 .780392156862745 .20
7843137254902 .705836814989854 .803936290975588 82 1 531 31 83 4 525 .7803921568
62745 .207843137254902 .705836814989854 .803936290975588 82 1 526 31 83 4 520 .7
80392156862745 .207843137254902 .705836814989854 .803936290975588 82 1 521 31 83
 4 515 .780392156862745 .207843137254902 .705836814989854 .803936290975588 82 1
 516 31 83 4 510 .780392156862745 .207843137254902 .705836814989854 .80393629097
5588 82 1 511 31 83 4 505 .780392156862745 .207843137254902 .705836814989854 .80
3936290975588 82 1 506 31 83 4 500 .780392156862745 .207843137254902 .7058368149
89854 .803936290975588 82 1 501 31 83 4 495 .780392156862745 .207843137254902 .7
05836814989854 .803936290975588 82 1 496 31 83 4 490 .780392156862745 .207843137
254902 .705836814989854 .803936290975588 82 1 491 31 83 4 485 .780392156862745 .
207843137254902 .705836814989854 .803936290975588 82 1 486 31 83 4 480 .78039215
6862745 .207843137254902 .705836814989854 .803936290975588 82 1 481 31 83 4 475
 .780392156862745 .207843137254902 .705836814989854 .803936290975588 82 1 476 31
 83 4 470 .780392156862745 .207843137254902 .705836814989854 .803936290975588 82
 1 471 31 83 4 465 .780392156862745 .207843137254902 .705836814989854 .803936290
975588 82 1 466 31 83 4 460 .780392156862745 .207843137254902 .705836814989854 .
803936290975588 82 1 461 31 83 4 455 .780392156862745 .207843137254902 .70583681
4989854 .803936290975588 82 1 456 31 83 4 450 .780392156862745 .207843137254902
 .705836814989854 .803936290975588 82 1 451 31 83 4 445 .666559437904324 0 .6076
13361335597 .525490196078431 82 1 446 60 83 4 440 .666559437904324 0 .6076133613
35597 .525490196078431 82 1 441 60 83 4 435 .780392156862745 .207843137254902 .7
05836814989854 .803936290975588 82 1 436 31 79 21 409 SDL/TYSA_REFLECTIVITY83 1
 403 0 83 4 401 .780392156862745 .207843137254902 .705836814989854 .803936290975
588 82 1 402 31 79 21 397 SDL/TYSA_TRANSLUCENCY15 392 172 0 176 389 583 17 176 0
 392 176 176 174 215 212 0 215 -15 583 175 0 178 389 0 17 178 0 583 178 178 177
 192 190 0 192 -17 192 0 584 192 192 177 178 190 0 0 +15 584 202 0 192 16 189 15
 189 203 0 186 16 0 17 215 0 291 215 215 174 176 212 0 0 +15 291 194 0 215 283 5
85 15 585 195 0 182 283 586 17 182 0 585 182 182 179 180 183 0 0 +15 586 196 0 2
80 283 0 17 280 0 586 587 211 153 276 273 0 202 -17 587 0 586 588 280 168 202 20
1 0 0 -17 211 0 586 280 588 156 209 18 0 0 -17 202 0 292 152 170 153 587 201 0 0
 +15 292 186 0 199 284 0 17 152 0 292 199 202 146 155 203 0 271 +17 170 0 292 20
2 199 168 226 224 0 223 -17 199 0 292 170 152 171 235 197 0 0 +17 223 0 228 226
 167 168 588 221 0 587 +17 167 0 228 223 214 165 164 210 0 588 -17 588 0 586 211
 587 165 223 221 0 209 -17 214 0 228 167 589 162 590 219 0 207 +17 589 0 228 214
 230 133 132 255 0 590 +17 590 0 234 136 207 133 214 219 0 0 -16 219 162 0 ?214
 255 221 217 0 0 1 17 207 0 234 590 161 162 205 204 0 0 -17 161 0 234 207 124 15
9 253 250 0 277 -17 124 0 234 161 591 117 126 592 0 593 +17 591 0 234 124 112 12
1 594 595 0 0 +17 126 0 363 596 593 121 124 592 0 597 -16 592 112 0 ?124 183 268
 598 0 0 1 17 593 0 363 126 599 117 116 267 0 253 -15 363 106 0 599 358 0 17 599
 0 363 593 596 110 120 600 0 601 -17 116 0 278 602 253 110 593 267 0 599 +16 267
 110 0 ?116 264 603 604 0 0 1 16 603 121 0 ?602 267 272 605 0 0 1 30 604 369 0 2
67 606 598 0 +.0055 .005 .0035 0 0 -1 30 606 368 0 600 607 604 0 +.0055 .005 .00
65 1233581138472392e-30 -1 0 30 598 370 0 592 604 608 0 +.0055 .0025 .007 -12335
81138472392e-30 1 0 30 608 371 0 609 598 610 0 +.0055 .0041 .007 0 0 -1 16 609 1
14 0 ?596 611 612 608 0 0 1 30 610 372 0 262 608 613 0 +.0055 .0041 .0065 1 7930
16446160826e-31 0 16 262 117 0 ?614 600 260 610 0 0 1 30 613 373 0 595 610 605 0
 +.00725 .0041 .007 -1 -793016446160826e-31 0 16 595 118 0 ?591 245 615 613 0 0
 1 30 605 374 0 603 613 616 0 +.0045 .005 .0065 1 1233581138472396e-31 -16369524
5714838e-44 30 616 375 0 617 605 618 0 +.0055 -.0041 .0065 -1233581138472392e-30
 -1 0 16 617 124 0 ?619 263 248 616 0 0 1 30 618 376 0 263 616 620 0 +.0055 -.00
41 .007 0 0 -1 16 263 127 0 ?621 260 617 618 0 0 1 30 620 377 0 268 618 258 0 +.
0055 -.00205 .007 1233581138472392e-30 1 0 16 268 129 0 ?136 592 241 620 0 0 1 3
0 258 378 0 255 620 257 0 +.0055 -.005 .0035 0 0 1 16 255 131 0 ?589 251 219 258
 0 0 1 17 136 0 234 238 590 129 138 268 0 622 +17 138 0 374 132 622 133 136 268
 0 589 -17 622 0 374 138 128 129 621 263 0 240 -15 374 123 0 128 370 0 17 128 0
 374 622 132 122 619 617 0 621 -17 621 0 381 623 240 122 622 263 0 266 +17 240 0
 381 621 244 129 238 241 0 0 -15 381 143 0 623 377 0 17 244 0 381 240 623 145 24
3 260 0 238 -17 623 0 381 244 621 142 266 264 0 0 -17 243 0 242 233 150 142 244
 260 0 623 +17 266 0 384 619 144 122 623 264 0 0 +15 384 147 0 619 380 0 17 619
 0 384 249 266 130 128 617 0 230 +17 144 0 384 266 249 142 233 248 0 243 +17 249
 0 384 144 619 134 230 251 0 0 -16 248 134 0 ?144 617 264 257 0 0 1 17 230 0 228
 589 140 130 249 251 0 0 +17 132 0 374 128 138 130 589 255 0 619 -16 245 102 0 ?
112 239 595 624 0 0 1 16 615 12 0 ?34 595 625 626 0 0 1 17 34 0 236 627 628 27 4
2 615 0 30 +16 625 32 0 ?627 615 629 630 0 0 1 30 626 330 0 615 631 25 0 +.0125
 8e-4 .007 0 -1 0 30 631 329 0 632 633 626 0 +.0125 .0016 .007 0 0 -1 30 25 331
 0 9 626 634 0 +.0125 .0034 .007 0 0 -1 30 634 332 0 635 25 636 0 +.0055 .0034 .
0065 -1 -158603289232165e-30 0 16 635 17 0 ?45 32 637 634 0 0 1 30 636 333 0 638
 634 639 0 +.01075 .0034 .007 1 158603289232165e-30 0 16 638 19 0 ?628 629 640 6
36 0 0 1 30 639 334 0 24 636 641 0 +.0055 .0034 .007 0 0 -1 16 24 21 0 ?642 9 64
3 639 0 0 1 30 641 335 0 637 639 644 0 +.0055 .0016 .0065 0 -1 0 16 637 24 0 ?51
 635 645 641 0 0 1 30 644 336 0 629 641 646 0 +.0055 .0017 .007 0 1 0 16 629 26
 0 ?647 625 638 644 0 0 1 30 646 337 0 643 644 648 0 +.0055 .0016 .007 0 0 -1 16
 643 28 0 ?649 24 632 646 0 0 1 30 648 338 0 645 646 630 0 +.0125 .0016 .0065 1
 118952466924124e-30 0 16 645 31 0 ?650 637 651 648 0 0 1 30 630 339 0 625 648 6
52 0 +.00725 .0016 .007 -1 -118952466924124e-30 0 30 652 340 0 653 630 654 0 +.0
055 9e-4 .0065 0 -1 0 16 653 37 0 ?60 655 656 652 0 0 1 30 654 341 0 655 652 657
 0 +.0055 9e-4 .007 0 0 -1 16 655 40 0 ?658 659 653 654 0 0 1 30 657 342 0 640 6
54 660 0 +.0055 45e-5 .007 0 1 0 16 640 42 0 ?64 638 661 657 0 0 1 30 660 343 0
 651 657 662 0 +.0055 -9e-4 .007 0 0 -1 16 651 44 0 ?663 645 664 660 0 0 1 30 66
2 344 0 656 660 665 0 +.0055 -9e-4 .0065 1 118952466924124e-30 0 16 656 47 0 ?69
 653 666 662 0 0 1 30 665 345 0 667 662 668 0 +.00725 -9e-4 .007 -1 -11895246692
4124e-30 0 16 667 49 0 ?669 670 671 665 0 0 1 30 668 346 0 664 665 672 0 +.0125
 -9e-4 .007 0 0 -1 16 664 51 0 ?673 651 659 668 0 0 1 30 672 347 0 666 668 674 0
 +.0125 -9e-4 .0065 0 1 0 16 666 54 0 ?75 656 675 672 0 0 1 30 674 348 0 670 672
 676 0 +.0125 -45e-5 .007 0 -1 0 16 670 56 0 ?677 661 667 674 0 0 1 30 676 349 0
 659 674 678 0 +.0125 9e-4 .007 0 0 -1 16 659 58 0 ?679 664 655 676 0 0 1 30 678
 350 0 675 676 680 0 +.0125 9e-4 .0065 -1 -118952466924124e-30 0 16 675 61 0 ?68
1 666 682 678 0 0 1 30 680 351 0 661 678 683 0 +.01075 9e-4 .007 1 1189524669241
24e-30 0 16 661 62 0 ?684 640 670 680 0 0 1 30 683 352 0 685 680 686 0 +.0055 -.
0016 .0065 0 -1 0 16 685 67 0 ?84 687 688 683 0 0 1 30 686 353 0 687 683 689 0 +
.0055 -.0016 .007 0 0 -1 16 687 70 0 ?690 691 685 686 0 0 1 30 689 354 0 671 686
 692 0 +.0055 -8e-4 .007 0 1 0 16 671 72 0 ?88 667 693 689 0 0 1 30 692 355 0 68
2 689 694 0 +.0055 -.0034 .007 0 0 -1 16 682 74 0 ?695 675 696 692 0 0 1 30 694
 356 0 688 692 697 0 +.0055 -.0034 .0065 1 158603289232165e-30 0 16 688 77 0 ?93
 685 698 694 0 0 1 30 697 357 0 193 694 699 0 +.00725 -.0034 .007 -1 -1586032892
32165e-30 0 16 193 79 0 ?700 701 190 697 0 0 1 30 699 358 0 696 697 702 0 +.0125
 -.0034 .007 0 0 -1 16 696 81 0 ?703 682 691 699 0 0 1 30 702 359 0 698 699 704
 0 +.0125 -.0034 .0065 0 1 0 16 698 84 0 ?99 688 611 702 0 0 1 30 704 360 0 701
 702 705 0 +.0125 -.0017 .007 0 -1 0 16 701 86 0 ?706 693 193 704 0 0 1 30 705 3
61 0 691 704 707 0 +.0125 -.0016 .007 0 0 -1 16 691 88 0 ?708 696 687 705 0 0 1
 30 707 362 0 611 705 709 0 +.0125 -.0016 .0065 -1 -118952466924124e-30 0 16 611
 91 0 ?710 698 609 707 0 0 1 30 709 363 0 693 707 711 0 +.01075 -.0016 .007 1 11
8952466924124e-30 0 16 693 92 0 ?712 671 701 709 0 0 1 30 711 364 0 713 709 714
 0 +.0125 .0041 .0065 0 1 0 16 713 97 0 ?715 612 600 711 0 0 1 30 714 365 0 612
 711 624 0 +.0125 .0041 .007 0 0 -1 16 612 100 0 ?716 609 713 714 0 0 1 30 624 3
66 0 245 714 607 0 +.0125 .00205 .007 0 -1 0 30 607 367 0 272 624 606 0 +.0125 .
005 .0035 0 0 1 16 272 104 0 ?717 603 270 607 0 0 1 17 717 0 278 271 602 109 108
 272 0 237 +17 271 0 278 155 717 146 237 270 0 235 +17 602 0 278 717 116 106 601
 603 0 0 +17 108 0 359 104 114 106 717 272 0 715 -17 237 0 234 112 235 109 271 2
70 0 0 -17 112 0 234 591 237 105 114 245 0 718 +17 114 0 359 108 718 109 112 245
 0 717 -17 718 0 359 114 104 105 716 612 0 594 -15 359 96 0 104 354 0 17 104 0 3
59 718 108 100 715 713 0 716 -17 716 0 367 719 594 100 718 612 0 614 +17 594 0 3
67 716 597 105 591 595 0 0 -15 367 116 0 719 362 0 17 597 0 367 594 719 121 596
 609 0 591 -17 719 0 367 597 716 118 614 262 0 0 -17 596 0 363 599 126 118 597 6
09 0 719 +17 614 0 371 715 120 100 719 262 0 0 +15 371 120 0 715 366 0 17 715 0
 371 601 614 106 104 713 0 602 +17 120 0 371 614 601 118 599 600 0 596 +17 601 0
 371 120 715 110 602 603 0 0 -16 600 107 0 ?120 713 262 606 0 0 1 17 155 0 278 2
76 271 153 152 203 0 280 -17 712 0 720 706 88 94 721 693 0 0 +15 720 201 0 88 16
 584 17 706 0 720 700 712 86 102 701 0 0 +17 88 0 720 712 700 81 90 671 0 722 +1
7 721 0 351 690 723 81 712 693 0 0 -15 351 90 0 724 346 0 17 690 0 351 724 721 7
6 722 687 0 710 +17 723 0 351 721 724 94 708 691 0 712 -17 724 0 351 723 690 97
 710 611 0 0 -17 708 0 347 725 102 97 723 691 0 724 +15 347 83 0 725 342 0 17 72
5 0 347 726 708 91 99 698 0 0 -17 102 0 347 708 726 94 706 701 0 723 -17 726 0 3
47 102 725 86 703 696 0 706 -17 703 0 343 727 96 91 726 696 0 725 +15 343 76 0 7
27 338 0 17 727 0 343 728 703 82 93 688 0 0 -17 96 0 343 703 728 86 700 193 0 72
6 -17 728 0 343 96 727 85 695 682 0 700 -17 700 0 720 88 706 85 96 193 0 0 +17 6
95 0 339 80 90 82 728 682 0 727 +15 339 66 0 80 334 0 17 80 0 339 722 695 76 84
 685 0 690 -17 90 0 339 695 722 85 88 671 0 728 -17 722 0 339 90 80 81 690 687 0
 721 -17 84 0 355 93 710 82 80 685 0 695 +15 355 94 0 84 350 0 17 93 0 355 99 84
 91 727 688 0 703 +17 710 0 355 84 99 76 724 611 0 0 +17 99 0 355 710 93 97 725
 698 0 708 +17 684 0 729 677 64 70 730 661 0 0 +15 729 200 0 64 16 720 17 677 0
 729 669 684 62 78 670 0 0 +17 64 0 729 684 669 57 66 640 0 731 +17 730 0 331 65
8 732 57 684 661 0 0 -15 331 60 0 733 326 0 17 658 0 331 733 730 52 731 655 0 68
1 +17 732 0 331 730 733 70 679 659 0 684 -17 733 0 331 732 658 73 681 675 0 0 -1
7 679 0 327 734 78 73 732 659 0 733 +15 327 53 0 734 322 0 17 734 0 327 735 679
 67 75 666 0 0 -17 78 0 327 679 735 70 677 670 0 732 -17 735 0 327 78 734 62 673
 664 0 677 -17 673 0 323 736 72 67 735 664 0 734 +15 323 46 0 736 318 0 17 736 0
 323 737 673 58 69 656 0 0 -17 72 0 323 673 737 62 669 667 0 735 -17 737 0 323 7
2 736 61 663 651 0 669 -17 669 0 729 64 677 61 72 667 0 0 +17 663 0 319 56 66 58
 737 651 0 736 +15 319 36 0 56 314 0 17 56 0 319 731 663 52 60 653 0 658 -17 66
 0 319 663 731 61 64 640 0 737 -17 731 0 319 66 56 57 658 655 0 730 -17 60 0 335
 69 681 58 56 653 0 663 +15 335 64 0 60 330 0 17 69 0 335 75 60 67 736 656 0 673
 +17 681 0 335 60 75 52 733 675 0 0 +17 75 0 335 681 69 73 734 666 0 679 +17 650
 0 315 31 51 10 738 645 0 0 +15 315 34 0 31 310 0 17 31 0 315 45 650 38 26 32 0
 23 +17 51 0 315 650 45 49 739 637 0 649 +17 738 0 311 740 33 49 650 645 0 0 -15
 311 30 0 738 306 0 17 740 0 311 741 738 46 649 643 0 627 -17 33 0 311 738 741 1
0 30 632 0 650 +17 741 0 311 33 740 27 627 625 0 0 -17 30 0 29 42 26 27 33 632 0
 741 -16 632 10 0 ?33 643 32 631 0 0 1 16 32 7 0 ?31 632 635 633 0 0 1 30 633 32
8 0 32 0 631 0 +.0125 .0034 .0065 0 1 0 17 42 0 29 23 30 35 34 615 0 742 -17 23
 0 29 26 42 38 742 9 0 743 +17 742 0 301 48 743 35 23 9 0 628 -15 301 16 0 743 2
95 0 17 48 0 301 642 742 39 628 638 0 744 -17 743 0 301 742 642 38 45 635 0 0 -1
7 628 0 236 34 647 35 48 638 0 0 +15 236 199 0 34 16 729 17 647 0 236 628 627 39
 54 629 0 0 +17 627 0 236 647 34 46 741 625 0 0 +17 54 0 307 649 744 46 647 629
 0 740 -15 307 23 0 739 300 0 17 649 0 307 739 54 49 740 643 0 738 +17 744 0 307
 54 739 39 642 24 0 647 -17 739 0 307 744 649 43 51 637 0 0 -17 642 0 301 743 48
 43 744 24 0 739 +17 45 0 315 51 31 43 743 635 0 642 +16 183 180 0 ?182 212 592
 195 0 0 1 83 1 299 0 50 17 326 0 283 285 5 0 +.009 -555111512312578e-33 0 0 0 1
 .707106781186548 .707106781186548 0 83 1 290 0 19 15 1 0 1 0 8 4 S74 20 13 4 0
 0 421 418 423 2 0 0 0 0 0 0 0 0 0 0 0 0 0 0 0 0 80 1 11 745 746 8017 0 0 0 0 0
 0 0 0 0 TTTTTTTTTTTTTF3 84 6 12 Solid179 13 746 SDL/TYSA_NAME1 0 
